<svg width="250" height="250" viewBox="0 0 250 250" fill="none" xmlns="http://www.w3.org/2000/svg">
<circle cx="125" cy="125" r="122.5" fill="#FFB800" stroke="#787878" stroke-width="5"/>
<path d="M117.15 146.452C117.15 146.452 152.392 100.243 105.233 83.6684C58.0793 67.1004 82.074 78.851 46.1675 60.1247C46.1675 60.1247 40.0737 70.7156 56.7155 91.7219L47.0772 90.6375C47.0772 90.6375 44.6709 106.49 69.7861 110.31L59.2153 114.769C59.2153 114.769 68.0268 124.416 82.9145 121.457L77.1129 128.265C77.1129 128.265 83.9493 134.682 97.2893 127.508L92.7999 132.638C92.7999 132.638 101.901 140.71 111.672 135.56C111.672 135.56 119.828 133.66 117.15 146.452Z" fill="#787878"/>
<path d="M117.256 138.442C117.256 138.442 145.459 101.555 107.728 88.3254C70.0081 75.1082 89.2024 84.4841 60.4752 69.5405C60.4752 69.5405 55.6034 77.994 68.9163 94.7674L61.2045 93.9035C61.2045 93.9035 59.2784 106.55 79.3693 109.603L70.9133 113.159C70.9133 113.159 77.9626 120.863 89.8746 118.497L85.2277 123.928C85.2277 123.928 90.7019 129.055 101.372 123.327L97.7834 127.429C97.7834 127.429 105.062 133.853 112.881 129.749C112.881 129.749 119.41 128.229 117.256 138.442" fill="white"/>
<path d="M133.105 146.452C133.105 146.452 97.8626 100.243 145.022 83.6684C192.176 67.1004 168.181 78.851 204.088 60.1247C204.088 60.1247 210.181 70.7156 193.54 91.7219L203.178 90.6375C203.178 90.6375 205.584 106.49 180.469 110.31L191.04 114.769C191.04 114.769 182.228 124.416 167.341 121.457L173.142 128.265C173.142 128.265 166.306 134.682 152.966 127.508L157.455 132.638C157.455 132.638 148.354 140.71 138.583 135.56C138.583 135.56 130.427 133.66 133.105 146.452Z" fill="#787878"/>
<path d="M132.999 138.442C132.999 138.442 104.797 101.555 142.527 88.3254C180.247 75.1082 161.053 84.4841 189.78 69.5405C189.78 69.5405 194.652 77.994 181.339 94.7674L189.051 93.9035C189.051 93.9035 190.977 106.55 170.886 109.603L179.342 113.159C179.342 113.159 172.293 120.863 160.381 118.497L165.027 123.928C165.027 123.928 159.553 129.055 148.883 123.327L152.472 127.429C152.472 127.429 145.193 133.853 137.374 129.749C137.374 129.749 130.845 128.229 132.999 138.442" fill="white"/>
<path d="M97.7459 100.194V85H151.613V100.194H134.017V192.444H157V208H92V192.444H116.061V100.194H97.7459Z" fill="white" stroke="#787878" stroke-width="5" stroke-linejoin="bevel"/>
<circle cx="124.5" cy="52.5" r="15" fill="white" stroke="#787878" stroke-width="5"/>
</svg>
